<mxfile host="app.diagrams.net" agent="Mozilla/5.0 (Windows NT 10.0; Win64; x64) AppleWebKit/537.36 (KHTML, like Gecko) Chrome/118.0.0.0 Safari/537.36" version="24.8.6">
  <diagram id="C5RBs43oDa-KdzZeNtuy" name="Page-1">
    <mxGraphModel dx="1434" dy="782" grid="1" gridSize="10" guides="1" tooltips="1" connect="1" arrows="1" fold="1" page="1" pageScale="1" pageWidth="827" pageHeight="1169" math="0" shadow="0">
      <root>
        <mxCell id="WIyWlLk6GJQsqaUBKTNV-0" />
        <mxCell id="WIyWlLk6GJQsqaUBKTNV-1" parent="WIyWlLk6GJQsqaUBKTNV-0" />
        <mxCell id="B4Gi4QNgui9uXVvXm1L8-0" style="edgeStyle=orthogonalEdgeStyle;rounded=0;orthogonalLoop=1;jettySize=auto;html=1;exitX=0.5;exitY=1;exitDx=0;exitDy=0;entryX=0.5;entryY=0;entryDx=0;entryDy=0;" edge="1" parent="WIyWlLk6GJQsqaUBKTNV-1" source="B4Gi4QNgui9uXVvXm1L8-1" target="B4Gi4QNgui9uXVvXm1L8-12">
          <mxGeometry relative="1" as="geometry" />
        </mxCell>
        <mxCell id="B4Gi4QNgui9uXVvXm1L8-1" value="&lt;div&gt;輸入更新的個人基本資料&lt;/div&gt;" style="rounded=1;whiteSpace=wrap;html=1;fontSize=12;glass=0;strokeWidth=1;shadow=0;" vertex="1" parent="WIyWlLk6GJQsqaUBKTNV-1">
          <mxGeometry x="117.5" y="320" width="140" height="40" as="geometry" />
        </mxCell>
        <mxCell id="B4Gi4QNgui9uXVvXm1L8-2" value="&lt;div&gt;會員資訊更新頁面&lt;/div&gt;" style="text;html=1;align=center;verticalAlign=middle;resizable=0;points=[];autosize=1;strokeColor=none;fillColor=none;" vertex="1" parent="WIyWlLk6GJQsqaUBKTNV-1">
          <mxGeometry x="127.5" y="50" width="120" height="30" as="geometry" />
        </mxCell>
        <mxCell id="B4Gi4QNgui9uXVvXm1L8-3" value="" style="rounded=0;html=1;jettySize=auto;orthogonalLoop=1;fontSize=11;endArrow=block;endFill=0;endSize=8;strokeWidth=1;shadow=0;labelBackgroundColor=none;edgeStyle=orthogonalEdgeStyle;" edge="1" parent="WIyWlLk6GJQsqaUBKTNV-1" source="B4Gi4QNgui9uXVvXm1L8-4" target="B4Gi4QNgui9uXVvXm1L8-7">
          <mxGeometry relative="1" as="geometry" />
        </mxCell>
        <mxCell id="B4Gi4QNgui9uXVvXm1L8-4" value="&lt;div&gt;會員登入系統&lt;/div&gt;" style="rounded=1;whiteSpace=wrap;html=1;fontSize=12;glass=0;strokeWidth=1;shadow=0;" vertex="1" parent="WIyWlLk6GJQsqaUBKTNV-1">
          <mxGeometry x="127.5" y="100" width="120" height="40" as="geometry" />
        </mxCell>
        <mxCell id="B4Gi4QNgui9uXVvXm1L8-5" value="&lt;div&gt;如果已登入&lt;/div&gt;" style="rounded=0;html=1;jettySize=auto;orthogonalLoop=1;fontSize=11;endArrow=block;endFill=0;endSize=8;strokeWidth=1;shadow=0;labelBackgroundColor=none;edgeStyle=orthogonalEdgeStyle;entryX=0.5;entryY=0;entryDx=0;entryDy=0;" edge="1" parent="WIyWlLk6GJQsqaUBKTNV-1" source="B4Gi4QNgui9uXVvXm1L8-7" target="B4Gi4QNgui9uXVvXm1L8-1">
          <mxGeometry x="-0.1111" y="40" relative="1" as="geometry">
            <mxPoint as="offset" />
            <mxPoint x="187.5" y="320" as="targetPoint" />
          </mxGeometry>
        </mxCell>
        <mxCell id="B4Gi4QNgui9uXVvXm1L8-6" value="&lt;div&gt;如果未登入&lt;/div&gt;" style="edgeStyle=orthogonalEdgeStyle;rounded=0;html=1;jettySize=auto;orthogonalLoop=1;fontSize=11;endArrow=block;endFill=0;endSize=8;strokeWidth=1;shadow=0;labelBackgroundColor=none;" edge="1" parent="WIyWlLk6GJQsqaUBKTNV-1" source="B4Gi4QNgui9uXVvXm1L8-7" target="B4Gi4QNgui9uXVvXm1L8-9">
          <mxGeometry y="10" relative="1" as="geometry">
            <mxPoint as="offset" />
          </mxGeometry>
        </mxCell>
        <mxCell id="B4Gi4QNgui9uXVvXm1L8-7" value="&lt;div&gt;檢查使用者是否登入&lt;/div&gt;" style="rhombus;whiteSpace=wrap;html=1;shadow=0;fontFamily=Helvetica;fontSize=12;align=center;strokeWidth=1;spacing=6;spacingTop=-4;" vertex="1" parent="WIyWlLk6GJQsqaUBKTNV-1">
          <mxGeometry x="137.5" y="190" width="100" height="80" as="geometry" />
        </mxCell>
        <mxCell id="B4Gi4QNgui9uXVvXm1L8-8" style="edgeStyle=orthogonalEdgeStyle;rounded=0;orthogonalLoop=1;jettySize=auto;html=1;exitX=0.5;exitY=0;exitDx=0;exitDy=0;entryX=1;entryY=0.5;entryDx=0;entryDy=0;" edge="1" parent="WIyWlLk6GJQsqaUBKTNV-1" source="B4Gi4QNgui9uXVvXm1L8-9" target="B4Gi4QNgui9uXVvXm1L8-4">
          <mxGeometry relative="1" as="geometry" />
        </mxCell>
        <mxCell id="B4Gi4QNgui9uXVvXm1L8-9" value="&lt;div&gt;提示「請先登入」並跳轉到登入頁面&lt;/div&gt;" style="rounded=1;whiteSpace=wrap;html=1;fontSize=12;glass=0;strokeWidth=1;shadow=0;" vertex="1" parent="WIyWlLk6GJQsqaUBKTNV-1">
          <mxGeometry x="367.5" y="210" width="210" height="40" as="geometry" />
        </mxCell>
        <mxCell id="B4Gi4QNgui9uXVvXm1L8-10" value="如果格式正確" style="rounded=0;html=1;jettySize=auto;orthogonalLoop=1;fontSize=11;endArrow=block;endFill=0;endSize=8;strokeWidth=1;shadow=0;labelBackgroundColor=none;edgeStyle=orthogonalEdgeStyle;" edge="1" parent="WIyWlLk6GJQsqaUBKTNV-1" source="B4Gi4QNgui9uXVvXm1L8-12" target="B4Gi4QNgui9uXVvXm1L8-14">
          <mxGeometry x="-0.3333" y="50" relative="1" as="geometry">
            <mxPoint as="offset" />
          </mxGeometry>
        </mxCell>
        <mxCell id="B4Gi4QNgui9uXVvXm1L8-11" value="&lt;div&gt;如果格式不正確&lt;/div&gt;" style="edgeStyle=orthogonalEdgeStyle;rounded=0;html=1;jettySize=auto;orthogonalLoop=1;fontSize=11;endArrow=block;endFill=0;endSize=8;strokeWidth=1;shadow=0;labelBackgroundColor=none;" edge="1" parent="WIyWlLk6GJQsqaUBKTNV-1" source="B4Gi4QNgui9uXVvXm1L8-12" target="B4Gi4QNgui9uXVvXm1L8-15">
          <mxGeometry x="0.0286" y="20" relative="1" as="geometry">
            <mxPoint as="offset" />
          </mxGeometry>
        </mxCell>
        <mxCell id="B4Gi4QNgui9uXVvXm1L8-12" value="&lt;div&gt;檢查資料格式&lt;/div&gt;" style="rhombus;whiteSpace=wrap;html=1;shadow=0;fontFamily=Helvetica;fontSize=12;align=center;strokeWidth=1;spacing=6;spacingTop=-4;" vertex="1" parent="WIyWlLk6GJQsqaUBKTNV-1">
          <mxGeometry x="137.5" y="418" width="100" height="80" as="geometry" />
        </mxCell>
        <mxCell id="B4Gi4QNgui9uXVvXm1L8-13" value="" style="edgeStyle=orthogonalEdgeStyle;rounded=0;orthogonalLoop=1;jettySize=auto;html=1;" edge="1" parent="WIyWlLk6GJQsqaUBKTNV-1" source="B4Gi4QNgui9uXVvXm1L8-14" target="B4Gi4QNgui9uXVvXm1L8-16">
          <mxGeometry relative="1" as="geometry" />
        </mxCell>
        <mxCell id="B4Gi4QNgui9uXVvXm1L8-14" value="&lt;div&gt;更新會員資訊&lt;/div&gt;" style="rounded=1;whiteSpace=wrap;html=1;fontSize=12;glass=0;strokeWidth=1;shadow=0;" vertex="1" parent="WIyWlLk6GJQsqaUBKTNV-1">
          <mxGeometry x="127.5" y="538" width="120" height="40" as="geometry" />
        </mxCell>
        <mxCell id="B4Gi4QNgui9uXVvXm1L8-15" value="&lt;div&gt;提示「資料格式錯誤」&lt;/div&gt;" style="rounded=1;whiteSpace=wrap;html=1;fontSize=12;glass=0;strokeWidth=1;shadow=0;" vertex="1" parent="WIyWlLk6GJQsqaUBKTNV-1">
          <mxGeometry x="412.5" y="438" width="135" height="40" as="geometry" />
        </mxCell>
        <mxCell id="B4Gi4QNgui9uXVvXm1L8-16" value="&lt;div&gt;顯示「會員資訊更新成功」&lt;/div&gt;" style="whiteSpace=wrap;html=1;rounded=1;glass=0;strokeWidth=1;shadow=0;" vertex="1" parent="WIyWlLk6GJQsqaUBKTNV-1">
          <mxGeometry x="110" y="640" width="155" height="40" as="geometry" />
        </mxCell>
      </root>
    </mxGraphModel>
  </diagram>
</mxfile>
